<?xml version="1.0" encoding="utf-8"?>
<!-- Generator: Adobe Illustrator 14.0.0, SVG Export Plug-In . SVG Version: 6.00 Build 43363)  -->
<!DOCTYPE svg PUBLIC "-//W3C//DTD SVG 1.1//EN" "http://www.w3.org/Graphics/SVG/1.1/DTD/svg11.dtd">
<svg version="1.1" id="Layer_1" xmlns="http://www.w3.org/2000/svg" xmlns:xlink="http://www.w3.org/1999/xlink" x="0px" y="0px"
	 width="24px" height="24px" viewBox="0 0 24 24" enable-background="new 0 0 24 24" xml:space="preserve">
<path opacity="0.3" enable-background="new    " d="M11.99,2.096c-5.466,0-9.895,4.437-9.895,9.904c0,5.467,4.428,9.904,9.895,9.904
	c5.477,0,9.914-4.438,9.914-9.904C21.904,6.532,17.467,2.096,11.99,2.096z M12,19.924c-4.378,0-7.924-3.547-7.924-7.924
	S7.622,4.076,12,4.076c4.379,0,7.924,3.545,7.924,7.924C19.924,16.379,16.379,19.924,12,19.924z"/>
<path fill="none" d="M0,0h24v24H0V0z"/>
<path opacity="0.3" enable-background="new    " d="M12.495,7.048h-1.485v5.943l5.199,3.12l0.744-1.219l-4.458-2.644V7.048z"/>
</svg>
