<?xml version="1.0" encoding="utf-8"?>
<!-- Generator: Adobe Illustrator 14.0.0, SVG Export Plug-In . SVG Version: 6.00 Build 43363)  -->
<!DOCTYPE svg PUBLIC "-//W3C//DTD SVG 1.1//EN" "http://www.w3.org/Graphics/SVG/1.1/DTD/svg11.dtd">
<svg version="1.1" id="Layer_1" xmlns="http://www.w3.org/2000/svg" xmlns:xlink="http://www.w3.org/1999/xlink" x="0px" y="0px"
	 width="331px" height="379.152px" viewBox="0 0 331 379.152" enable-background="new 0 0 331 379.152" xml:space="preserve">
<g>
	<path fill="#39434E" d="M86.443,247.844c1.344,0.846,2.84,1.249,4.32,1.249c2.691,0,5.325-1.34,6.866-3.784l35.967-57.024
		l25.453,36.485c1.357,1.946,3.5,3.199,5.861,3.431c2.385,0.222,4.708-0.589,6.418-2.231l36.761-35.421l26.971,25.437
		c1.933,1.824,4.64,2.584,7.237,2.036c2.599-0.547,4.771-2.335,5.803-4.784l48.945-116.062c1.747-4.128-0.19-8.885-4.318-10.623
		c-4.128-1.743-8.889,0.195-10.627,4.318l-44.41,105.3l-24.097-22.726c-3.15-2.974-8.075-2.946-11.193,0.059l-35.484,34.19
		l-27.007-38.712c-1.555-2.231-4.023-3.598-6.839-3.467c-2.718,0.063-5.223,1.48-6.671,3.779L83.91,236.655
		C81.52,240.444,82.654,245.454,86.443,247.844z"/>
	<polygon opacity="0.4" fill="#39434E" points="306.151,276.775 62.54,276.775 62.54,66.746 46.319,66.746 46.319,115.917 
		25.621,115.917 25.621,132.139 46.319,132.139 46.319,181.26 25.621,181.26 25.621,197.482 46.319,197.482 46.319,246.608 
		25.621,246.608 25.621,262.83 46.319,262.83 46.319,292.399 46.563,292.399 46.563,292.996 76.741,292.996 76.741,313.052 
		92.962,313.052 92.962,292.996 138.812,292.996 138.812,313.052 155.033,313.052 155.033,292.996 200.882,292.996 200.882,313.052 
		217.104,313.052 217.104,292.996 262.953,292.996 262.953,313.052 279.175,313.052 279.175,292.996 306.151,292.996 	"/>
</g>
</svg>
