<svg xmlns="http://www.w3.org/2000/svg" width="333" height="63" viewBox="0 0 333 63"><g fill="#00BCD4"><path d="M78.338 20.494l.303 4.927c.958-1.742 2.23-3.09 3.823-4.045 1.59-.954 3.49-1.43 5.698-1.43 2.282 0 4.19.55 5.727 1.65 1.536 1.1 2.635 2.78 3.297 5.037.9-2.092 2.185-3.73 3.85-4.913 1.665-1.185 3.693-1.776 6.084-1.776 3.182 0 5.638 1.056 7.367 3.166 1.73 2.11 2.594 5.377 2.594 9.8v17.367h-3.312v-17.46c0-3.677-.648-6.274-1.945-7.792-1.297-1.517-3.104-2.275-5.422-2.275-2.556 0-4.534.8-5.932 2.4s-2.263 3.65-2.594 6.15c0 .128.004.312.014.55.01.24.014.415.014.525v17.9h-3.34V32.816c0-3.604-.657-6.183-1.972-7.736-1.315-1.552-3.123-2.33-5.422-2.33-2.336 0-4.19.593-5.56 1.78-1.37 1.185-2.332 2.78-2.883 4.784v20.96h-3.34v-29.78h2.953zM123.702 34.944c0-4.386 1.205-7.982 3.615-10.79 2.41-2.808 5.602-4.21 9.575-4.21 3.992 0 7.193 1.403 9.603 4.21 2.41 2.808 3.615 6.404 3.615 10.79v.908c0 4.403-1.2 8.005-3.6 10.804-2.402 2.798-5.59 4.197-9.563 4.197-4.01 0-7.22-1.4-9.63-4.197-2.41-2.8-3.615-6.4-3.615-10.804v-.908zm3.31.894c0 3.446.875 6.343 2.623 8.688 1.747 2.347 4.185 3.52 7.312 3.52 3.072 0 5.487-1.173 7.244-3.52 1.757-2.346 2.636-5.242 2.636-8.688v-.907c0-3.39-.883-6.268-2.65-8.632-1.765-2.365-4.193-3.547-7.284-3.547-3.09 0-5.51 1.183-7.257 3.548-1.748 2.365-2.622 5.243-2.622 8.633v.908zM180.612 36.21c0 4.46-1.012 8.015-3.035 10.666-2.023 2.652-4.81 3.978-8.36 3.978-2.19 0-4.075-.437-5.657-1.308-1.583-.87-2.86-2.124-3.835-3.757l-.36 4.485h-2.84V7.335h3.31v17.837c.994-1.67 2.264-2.96 3.81-3.868 1.544-.908 3.384-1.362 5.518-1.362 3.587 0 6.393 1.427 8.416 4.28 2.022 2.854 3.034 6.657 3.034 11.41v.578zm-3.34-.577c0-3.814-.734-6.916-2.206-9.302-1.473-2.386-3.652-3.58-6.54-3.58-2.3 0-4.153.573-5.56 1.715s-2.452 2.608-3.132 4.396v13.52c.735 1.732 1.835 3.11 3.297 4.133s3.28 1.534 5.45 1.534c2.89 0 5.06-1.068 6.513-3.207 1.453-2.138 2.18-5.013 2.18-8.625v-.582zM191.25 11.96h-3.285V7.337h3.284v4.625zm0 38.315h-3.285v-29.78h3.284v29.78zM198.48 35.797c0-4.752 1.022-8.583 3.064-11.49 2.042-2.91 4.91-4.364 8.61-4.364 1.617 0 3.065.326 4.345.977 1.277.652 2.386 1.583 3.324 2.794V7.336h6.705v42.94h-5.63l-.662-3.69c-.957 1.396-2.107 2.455-3.45 3.18-1.343.726-2.906 1.088-4.69 1.088-3.66 0-6.512-1.33-8.554-3.99-2.042-2.66-3.063-6.157-3.063-10.488v-.58zm6.707.578c0 2.753.53 4.945 1.587 6.58 1.058 1.632 2.736 2.448 5.036 2.448 1.416 0 2.616-.303 3.6-.908s1.79-1.468 2.416-2.587V28.916c-.626-1.1-1.436-1.958-2.43-2.574-.992-.614-2.17-.922-3.53-.922-2.282 0-3.965.96-5.05 2.876-1.086 1.917-1.63 4.418-1.63 7.5v.58zM249.687 50.275c-.24-.752-.437-1.486-.593-2.202s-.263-1.43-.317-2.146c-.92 1.395-2.13 2.564-3.63 3.51-1.498.944-3.177 1.417-5.034 1.417-3.11 0-5.496-.798-7.16-2.395s-2.498-3.79-2.498-6.58c0-2.88 1.14-5.123 3.422-6.73 2.28-1.604 5.49-2.407 9.63-2.407h5.215v-2.615c0-1.56-.46-2.78-1.38-3.66-.92-.882-2.234-1.322-3.945-1.322-1.527 0-2.74.367-3.643 1.1-.9.735-1.352 1.68-1.352 2.836h-6.457l-.027-.165c-.13-2.35.924-4.432 3.16-6.248 2.234-1.818 5.145-2.726 8.732-2.726 3.477 0 6.282.88 8.416 2.643 2.134 1.76 3.2 4.294 3.2 7.597v13.24c0 1.23.083 2.408.25 3.537.164 1.13.43 2.235.8 3.317h-6.79zm-8.223-4.79c1.692 0 3.215-.42 4.566-1.266 1.353-.845 2.25-1.808 2.69-2.89v-4.405h-5.325c-1.95 0-3.477.48-4.58 1.445-1.104.963-1.656 2.097-1.656 3.4 0 1.137.372 2.04 1.117 2.71.744.67 1.807 1.006 3.187 1.006zM279.5 42.183c0-1.027-.44-1.88-1.324-2.56-.883-.68-2.53-1.275-4.94-1.79-3.567-.75-6.268-1.82-8.098-3.205-1.83-1.386-2.745-3.27-2.745-5.657 0-2.495 1.058-4.624 3.173-6.385 2.115-1.762 4.902-2.643 8.36-2.643 3.643 0 6.536.895 8.68 2.684s3.168 4.005 3.076 6.647l-.056.165h-6.43c0-1.23-.47-2.285-1.406-3.166-.938-.88-2.227-1.32-3.863-1.32-1.62 0-2.852.36-3.698 1.086-.847.725-1.27 1.61-1.27 2.656s.4 1.876 1.2 2.49c.8.616 2.423 1.162 4.87 1.638 3.753.77 6.535 1.858 8.347 3.262 1.813 1.404 2.72 3.317 2.72 5.74 0 2.68-1.11 4.853-3.326 6.522-2.216 1.67-5.137 2.505-8.76 2.505-3.882 0-6.945-.99-9.19-2.972s-3.31-4.257-3.2-6.826l.056-.165h6.236c.073 1.725.7 2.98 1.876 3.77 1.178.79 2.612 1.185 4.305 1.185 1.73 0 3.063-.33 4-.99.938-.66 1.407-1.55 1.407-2.67zM298.346 24.347c.993-1.394 2.203-2.477 3.63-3.248 1.424-.772 3.002-1.157 4.73-1.157 3.164 0 5.634.996 7.41 2.986 1.774 1.99 2.662 5.06 2.662 9.206v18.14h-6.705V32.08c0-2.35-.47-4.046-1.407-5.092s-2.346-1.57-4.222-1.57c-1.307 0-2.48.272-3.52.813-1.038.542-1.898 1.29-2.58 2.243v21.8h-6.704V7.336h6.705v17.01z"/></g><path fill="none" stroke="#00BCD4" stroke-width="3" stroke-linecap="round" d="M50 20.502V42.5l-19 11-18.998-11V20.502l19-11 5.995 4.006"/><circle fill-rule="evenodd" clip-rule="evenodd" fill="#00BCD4" cx="50" cy="22" r="7.167"/></svg>