<?xml version="1.0" encoding="utf-8"?>
<!-- Generator: Adobe Illustrator 14.0.0, SVG Export Plug-In . SVG Version: 6.00 Build 43363)  -->
<!DOCTYPE svg PUBLIC "-//W3C//DTD SVG 1.1//EN" "http://www.w3.org/Graphics/SVG/1.1/DTD/svg11.dtd">
<svg version="1.1" id="Layer_1" xmlns="http://www.w3.org/2000/svg" xmlns:xlink="http://www.w3.org/1999/xlink" x="0px" y="0px"
	 width="331px" height="379.152px" viewBox="0 0 331 379.152" enable-background="new 0 0 331 379.152" xml:space="preserve">
<g>
	<path opacity="0.4" fill="#39434E" d="M178.802,62.083c-0.688,0-1.36,0.039-2.045,0.052v114.401h116.498
		C293.255,113.324,242.014,62.083,178.802,62.083z M191.538,77.675c44.111,5.65,79.297,40.249,85.842,84.079h-85.842V77.675z"/>
	<path fill="#39434E" d="M149.424,87.415c-5.04,0.089-9.987,0.537-14.848,1.254v14.958c0.023-0.004,0.043-0.01,0.066-0.015v29.51
		h-54.94c11.534-12.006,25.972-21.22,42.204-26.324V91.265c-48.879,13.027-84.893,57.564-84.893,110.549
		c0,29.634,11.276,56.62,29.757,76.938l11.647-9.457c-0.012-0.017-0.024-0.029-0.037-0.046l64.867-52.652h6.176h100.619
		c-7.164,47.976-48.639,84.889-98.578,84.889c-0.239,0-0.474-0.008-0.709-0.017l-1.072-0.032
		c-23.523-0.413-45.134-9.14-62.031-23.32l-11.784,9.564c19.69,17.34,45.371,28.043,73.555,28.537
		c0.681,0.009,1.357,0.05,2.042,0.05c63.211,0,114.453-51.242,114.453-114.453H149.424V87.415z M51.795,201.814
		c0-5.007,0.429-9.919,1.159-14.736h81.688v14.736v2.727l-8.534,6.925h-73.84C51.955,208.29,51.795,205.068,51.795,201.814z
		 M134.642,147.904v24.392H56.393c2.739-8.69,6.62-16.885,11.514-24.392H134.642z M54.983,226.248h52.917l-38.665,31.387
		C62.766,248.177,57.899,237.598,54.983,226.248z"/>
</g>
</svg>
