<?xml version="1.0" encoding="utf-8"?>
<!-- Generator: Adobe Illustrator 14.0.0, SVG Export Plug-In . SVG Version: 6.00 Build 43363)  -->
<!DOCTYPE svg PUBLIC "-//W3C//DTD SVG 1.1//EN" "http://www.w3.org/Graphics/SVG/1.1/DTD/svg11.dtd">
<svg version="1.1" id="Layer_1" xmlns="http://www.w3.org/2000/svg" xmlns:xlink="http://www.w3.org/1999/xlink" x="0px" y="0px"
	 width="427.119px" height="417.5px" viewBox="98.381 0 427.119 417.5" enable-background="new 98.381 0 427.119 417.5"
	 xml:space="preserve">
<g>
	<title>Layer 1</title>
	<path id="svg_1" display="none" fill="#FFFFFF" d="M0,0h600v400H0V0z"/>
	<path id="svg_2" display="none" fill="none" d="M10,86h580v299H10V86z"/>
	<g id="svg_3">
		<g id="svg_4">
			<path id="svg_5" fill="#3090F0" d="M309.25,25.762c76.089-0.016,137.784,61.654,137.801,137.743
				c0.012,59.665-38.383,112.556-95.114,131.031l-42.658-131.002L309.25,25.762z"/>
			<path id="svg_6" fill="#EC6464" d="M351.806,294.577c-72.374,23.487-150.083-16.143-173.57-88.517
				c-1.592-4.903-2.906-9.891-3.938-14.94l134.981-27.586L351.806,294.577z"/>
			<path id="svg_7" fill="#98DF58" d="M174.269,190.985c-7.447-36.63,0.309-74.715,21.489-105.516l113.521,78.064L174.269,190.985z"
				/>
			<path id="svg_8" fill="#F9DD51" d="M195.837,85.355c13.973-20.275,33.124-36.434,55.46-46.796l57.981,124.975L195.837,85.355
				L195.837,85.355L195.837,85.355L195.837,85.355L195.837,85.355z"/>
			<path id="svg_9" fill="#24DCD4" d="M251.421,38.499c16.223-7.506,33.75-11.784,51.607-12.595l6.251,137.629L251.421,38.499z"/>
			<path id="svg_10" fill="#EC64A5" d="M303.165,25.898c1.972-0.088,3.946-0.133,5.921-0.136l0.192,137.771L303.165,25.898z"/>
		</g>
	</g>
	<g id="svg_39" display="none">
		<path id="svg_40" display="inline" fill="#FFFFFF" fill-opacity="0.9" d="M4,0L4,0c2.209,0,4,1.791,4,4l0,0c0,2.209-1.791,4-4,4
			l0,0C1.791,8,0,6.209,0,4l0,0C0,1.791,1.791,0,4,0z"/>
	</g>
	<g id="svg_41" display="none">
		<path id="svg_42" display="inline" fill="none" stroke="#000000" stroke-width="5" stroke-opacity="0.05" d="M6-9998h6
			c5,0,5,0,5,5v6c0,5,0,5-5,5H6c-5,0-5,0-5-5v-6C1-9998,1-9998,6-9998"/>
		<path id="svg_43" display="inline" fill="none" stroke="#000000" stroke-width="3" stroke-opacity="0.1" d="M6-9998h6c5,0,5,0,5,5
			v6c0,5,0,5-5,5H6c-5,0-5,0-5-5v-6C1-9998,1-9998,6-9998"/>
		<path id="svg_44" display="inline" fill="none" stroke="#000000" stroke-opacity="0.15" d="M6-9998h6c5,0,5,0,5,5v6c0,5,0,5-5,5H6
			c-5,0-5,0-5-5v-6C1-9998,1-9998,6-9998"/>
		<path id="svg_45" display="inline" fill="#FFFFFF" d="M5-9999h6c5,0,5,0,5,5v6c0,5,0,5-5,5H5c-5,0-5,0-5-5v-6
			C0-9999,0-9999,5-9999"/>
	</g>
</g>
<g enable-background="new    ">
	<path fill="#FFFFFF" d="M366.863,147.137h2.256v3.076h-2.256v4.32h-3.979v-4.32h-8.121l-0.178-2.393l8.258-13.193h4.02V147.137z
		 M358.304,147.137h4.58v-7.178l-0.082-0.027l-0.314,0.562L358.304,147.137z"/>
	<path fill="#FFFFFF" d="M371.73,145.715l1.148-11.088h11.102v3.199h-7.834l-0.547,4.594c0.364-0.273,0.807-0.499,1.326-0.677
		s1.094-0.271,1.723-0.28c1.914-0.027,3.397,0.552,4.45,1.736c1.053,1.185,1.579,2.835,1.579,4.949c0,1.914-0.576,3.505-1.729,4.771
		c-1.153,1.267-2.814,1.9-4.983,1.9c-1.832,0-3.399-0.501-4.703-1.504c-1.304-1.002-1.933-2.379-1.887-4.129l0.027-0.068
		l3.842-0.191c0,0.884,0.251,1.575,0.752,2.071c0.501,0.497,1.157,0.745,1.969,0.745c0.93,0,1.615-0.33,2.058-0.989
		s0.663-1.521,0.663-2.586c0-1.146-0.237-2.065-0.711-2.757s-1.176-1.037-2.105-1.037c-0.766,0-1.352,0.142-1.757,0.424
		c-0.405,0.283-0.695,0.666-0.868,1.148L371.73,145.715z"/>
	<path fill="#FFFFFF" d="M387.009,143.049c0-0.827,0.256-1.523,0.767-2.09s1.184-0.85,2.017-0.85c0.827,0,1.496,0.283,2.007,0.85
		s0.767,1.263,0.767,2.09v0.752c0,0.82-0.254,1.512-0.762,2.075s-1.172,0.845-1.992,0.845c-0.84,0-1.517-0.282-2.031-0.845
		s-0.771-1.255-0.771-2.075V143.049z M387.947,143.801c0,0.573,0.161,1.061,0.483,1.465s0.783,0.605,1.382,0.605
		c0.579,0,1.027-0.202,1.343-0.605s0.474-0.892,0.474-1.465v-0.752c0-0.573-0.159-1.064-0.479-1.475s-0.771-0.615-1.357-0.615
		s-1.04,0.205-1.362,0.615s-0.483,0.902-0.483,1.475V143.801z M390.427,153.352l-0.723-0.469l6.943-11.113l0.723,0.469
		L390.427,153.352z M394.157,151.057c0-0.82,0.256-1.514,0.767-2.08s1.184-0.85,2.017-0.85c0.827,0,1.497,0.283,2.012,0.85
		s0.771,1.26,0.771,2.08v0.762c0,0.82-0.256,1.512-0.767,2.075s-1.177,0.845-1.997,0.845c-0.84,0-1.517-0.282-2.031-0.845
		s-0.771-1.255-0.771-2.075V151.057z M395.105,151.819c0,0.573,0.159,1.061,0.479,1.465s0.778,0.605,1.377,0.605
		c0.579,0,1.027-0.202,1.343-0.605s0.474-0.892,0.474-1.465v-0.762c0-0.592-0.159-1.087-0.479-1.484s-0.771-0.596-1.357-0.596
		s-1.038,0.2-1.357,0.601s-0.479,0.894-0.479,1.479V151.819z"/>
</g>
<g enable-background="new    ">
	<path fill="#FFFFFF" d="M241.672,79.019c0,0.994-0.262,1.873-0.786,2.639s-1.246,1.363-2.167,1.791
		c1.058,0.447,1.892,1.085,2.502,1.914c0.61,0.83,0.916,1.777,0.916,2.844c0,1.841-0.624,3.256-1.873,4.245
		c-1.249,0.989-2.88,1.483-4.895,1.483c-2.032,0-3.676-0.494-4.929-1.483c-1.253-0.989-1.88-2.404-1.88-4.245
		c0-1.075,0.303-2.025,0.909-2.851c0.606-0.825,1.442-1.465,2.509-1.921c-0.93-0.428-1.654-1.023-2.174-1.784
		c-0.52-0.761-0.779-1.638-0.779-2.632c0-1.768,0.579-3.138,1.736-4.108s2.685-1.456,4.58-1.456c1.887,0,3.413,0.485,4.58,1.456
		S241.672,77.251,241.672,79.019z M238.144,87.926c0-0.891-0.26-1.605-0.779-2.142c-0.52-0.536-1.194-0.805-2.023-0.805
		c-0.839,0-1.511,0.269-2.017,0.805c-0.506,0.537-0.759,1.25-0.759,2.142c0,0.909,0.255,1.625,0.766,2.148s1.189,0.784,2.037,0.784
		c0.829,0,1.499-0.264,2.01-0.791S238.144,88.827,238.144,87.926z M237.693,79.197c0-0.802-0.212-1.447-0.636-1.935
		c-0.424-0.487-0.996-0.731-1.716-0.731c-0.729,0-1.299,0.239-1.709,0.718s-0.615,1.128-0.615,1.948c0,0.83,0.207,1.488,0.622,1.976
		c0.415,0.488,0.991,0.731,1.729,0.731c0.72,0,1.287-0.244,1.702-0.731C237.486,80.685,237.693,80.026,237.693,79.197z"/>
	<path fill="#FFFFFF" d="M244.455,82.164c0-0.827,0.256-1.523,0.767-2.09s1.184-0.85,2.017-0.85c0.827,0,1.496,0.283,2.007,0.85
		s0.767,1.263,0.767,2.09v0.752c0,0.82-0.254,1.512-0.762,2.075s-1.172,0.845-1.992,0.845c-0.84,0-1.517-0.282-2.031-0.845
		s-0.771-1.255-0.771-2.075V82.164z M245.392,82.916c0,0.573,0.161,1.061,0.483,1.465s0.783,0.605,1.382,0.605
		c0.579,0,1.027-0.202,1.343-0.605s0.474-0.892,0.474-1.465v-0.752c0-0.573-0.159-1.064-0.479-1.475s-0.771-0.615-1.357-0.615
		s-1.04,0.205-1.362,0.615s-0.483,0.902-0.483,1.475V82.916z M247.873,92.466l-0.723-0.469l6.943-11.113l0.723,0.469L247.873,92.466
		z M251.603,90.171c0-0.82,0.256-1.514,0.767-2.08s1.184-0.85,2.017-0.85c0.827,0,1.497,0.283,2.012,0.85s0.771,1.26,0.771,2.08
		v0.762c0,0.82-0.256,1.512-0.767,2.075s-1.177,0.845-1.997,0.845c-0.84,0-1.517-0.282-2.031-0.845s-0.771-1.255-0.771-2.075V90.171
		z M252.551,90.933c0,0.573,0.159,1.061,0.479,1.465s0.778,0.605,1.377,0.605c0.579,0,1.027-0.202,1.343-0.605
		s0.474-0.892,0.474-1.465v-0.762c0-0.592-0.159-1.087-0.479-1.484s-0.771-0.596-1.357-0.596s-1.038,0.2-1.357,0.601
		s-0.479,0.894-0.479,1.479V90.933z"/>
</g>
<g enable-background="new    ">
	<path fill="#FFFFFF" d="M203.013,156.247h-3.992v-16.379h-4.047v-2.816l8.039-0.711V156.247z"/>
	<path fill="#FFFFFF" d="M223.644,156.247h-13.59v-2.611l6.439-6.904c0.93-1.066,1.591-1.966,1.982-2.7
		c0.392-0.733,0.588-1.415,0.588-2.044c0-0.838-0.226-1.524-0.677-2.058s-1.092-0.8-1.921-0.8c-0.921,0-1.62,0.313-2.099,0.937
		c-0.479,0.625-0.718,1.456-0.718,2.495h-3.883l-0.027-0.082c-0.046-1.795,0.545-3.315,1.771-4.56s2.878-1.866,4.956-1.866
		c2.051,0,3.662,0.533,4.833,1.6s1.757,2.488,1.757,4.266c0,1.203-0.33,2.313-0.991,3.329c-0.661,1.017-1.752,2.35-3.274,3.999
		l-3.541,3.855l0.027,0.068h8.367V156.247z"/>
	<path fill="#FFFFFF" d="M225.84,144.762c0-0.827,0.256-1.523,0.767-2.09s1.184-0.85,2.017-0.85c0.827,0,1.496,0.283,2.007,0.85
		s0.767,1.263,0.767,2.09v0.752c0,0.82-0.254,1.512-0.762,2.075s-1.172,0.845-1.992,0.845c-0.84,0-1.517-0.282-2.031-0.845
		s-0.771-1.255-0.771-2.075V144.762z M226.777,145.514c0,0.573,0.161,1.061,0.483,1.465s0.783,0.605,1.382,0.605
		c0.579,0,1.027-0.202,1.343-0.605s0.474-0.892,0.474-1.465v-0.752c0-0.573-0.159-1.064-0.479-1.475s-0.771-0.615-1.357-0.615
		s-1.04,0.205-1.362,0.615s-0.483,0.902-0.483,1.475V145.514z M229.258,155.065l-0.723-0.469l6.943-11.113l0.723,0.469
		L229.258,155.065z M232.988,152.77c0-0.82,0.256-1.514,0.767-2.08s1.184-0.85,2.017-0.85c0.827,0,1.497,0.283,2.012,0.85
		s0.771,1.26,0.771,2.08v0.762c0,0.82-0.256,1.512-0.767,2.075s-1.177,0.845-1.997,0.845c-0.84,0-1.517-0.282-2.031-0.845
		s-0.771-1.255-0.771-2.075V152.77z M233.935,153.532c0,0.573,0.159,1.061,0.479,1.465s0.778,0.605,1.377,0.605
		c0.579,0,1.027-0.202,1.343-0.605s0.474-0.892,0.474-1.465v-0.762c0-0.592-0.159-1.087-0.479-1.484s-0.771-0.596-1.357-0.596
		s-1.038,0.2-1.357,0.601s-0.479,0.894-0.479,1.479V153.532z"/>
</g>
<g enable-background="new    ">
	<path fill="#FFFFFF" d="M263.336,242.836h-13.59v-2.611l6.439-6.904c0.93-1.066,1.591-1.967,1.982-2.7s0.588-1.415,0.588-2.044
		c0-0.839-0.226-1.524-0.677-2.058s-1.092-0.8-1.921-0.8c-0.921,0-1.62,0.313-2.099,0.937s-0.718,1.456-0.718,2.495h-3.883
		l-0.027-0.082c-0.046-1.796,0.545-3.315,1.771-4.56s2.878-1.866,4.956-1.866c2.051,0,3.662,0.533,4.833,1.6
		s1.757,2.488,1.757,4.266c0,1.203-0.33,2.313-0.991,3.329s-1.752,2.35-3.274,3.999l-3.541,3.855l0.027,0.068h8.367V242.836z"/>
	<path fill="#FFFFFF" d="M279.345,226.006c-2.133,2.497-3.589,4.826-4.368,6.986s-1.338,4.767-1.675,7.82l-0.191,2.023h-3.992
		l0.191-2.023c0.31-2.926,0.976-5.612,1.996-8.06s2.42-4.696,4.197-6.747h-10.227v-3.076h14.068V226.006z"/>
	<path fill="#FFFFFF" d="M281.595,231.352c0-0.827,0.256-1.523,0.767-2.09s1.184-0.85,2.017-0.85c0.827,0,1.496,0.283,2.007,0.85
		s0.767,1.263,0.767,2.09v0.752c0,0.82-0.254,1.512-0.762,2.075c-0.508,0.563-1.172,0.845-1.992,0.845
		c-0.84,0-1.517-0.282-2.031-0.845c-0.515-0.563-0.771-1.255-0.771-2.075V231.352z M282.533,232.104
		c0,0.572,0.161,1.061,0.483,1.465c0.322,0.403,0.783,0.605,1.382,0.605c0.579,0,1.027-0.202,1.343-0.605
		c0.315-0.404,0.474-0.893,0.474-1.465v-0.752c0-0.573-0.159-1.064-0.479-1.475s-0.771-0.615-1.357-0.615s-1.04,0.205-1.362,0.615
		s-0.483,0.901-0.483,1.475V232.104z M285.013,241.654l-0.723-0.469l6.943-11.113l0.723,0.469L285.013,241.654z M288.744,239.359
		c0-0.82,0.256-1.514,0.767-2.08s1.184-0.85,2.017-0.85c0.827,0,1.497,0.283,2.012,0.85s0.771,1.26,0.771,2.08v0.762
		c0,0.82-0.256,1.512-0.767,2.075c-0.511,0.563-1.177,0.845-1.997,0.845c-0.84,0-1.517-0.282-2.031-0.845
		c-0.515-0.563-0.771-1.255-0.771-2.075V239.359z M289.691,240.121c0,0.572,0.159,1.061,0.479,1.465
		c0.319,0.403,0.778,0.605,1.377,0.605c0.579,0,1.027-0.202,1.343-0.605c0.315-0.404,0.474-0.893,0.474-1.465v-0.762
		c0-0.593-0.159-1.088-0.479-1.484c-0.319-0.397-0.771-0.596-1.357-0.596s-1.038,0.2-1.357,0.601s-0.479,0.894-0.479,1.479V240.121z
		"/>
</g>
<g enable-background="new    ">
	<path fill="#808080" d="M163.614,348.406l0.02,0.06c0.026,1.367-0.454,2.513-1.441,3.437c-0.987,0.924-2.291,1.386-3.912,1.386
		c-1.647,0-2.99-0.583-4.027-1.751c-1.037-1.167-1.556-2.647-1.556-4.441v-2.592c0-1.794,0.519-3.276,1.556-4.447
		c1.037-1.17,2.379-1.756,4.027-1.756s2.958,0.439,3.932,1.316c0.974,0.877,1.447,2.039,1.421,3.486l-0.02,0.06h-1.891
		c0-1.021-0.3-1.827-0.9-2.421c-0.6-0.594-1.447-0.891-2.541-0.891c-1.101,0-1.978,0.443-2.631,1.33
		c-0.654,0.886-0.98,1.985-0.98,3.299v2.608c0,1.326,0.327,2.433,0.98,3.319c0.654,0.886,1.531,1.329,2.631,1.329
		c1.094,0,1.941-0.295,2.541-0.885c0.601-0.591,0.9-1.406,0.9-2.446H163.614z"/>
	<path fill="#808080" d="M167.895,343.704c0.374-0.521,0.832-0.926,1.376-1.216c0.543-0.29,1.146-0.436,1.806-0.436
		c1.154,0,2.053,0.347,2.696,1.041c0.644,0.693,0.965,1.761,0.965,3.201v6.783h-1.971v-6.803c0-0.895-0.192-1.555-0.575-1.981
		c-0.384-0.427-0.956-0.641-1.716-0.641c-0.547,0-1.042,0.129-1.486,0.386s-0.809,0.605-1.096,1.045v7.994h-1.971v-15.607h1.971
		V343.704z"/>
	<path fill="#808080" d="M182.693,343.994l-1.011-0.061c-0.52,0-0.959,0.124-1.315,0.37c-0.357,0.247-0.632,0.594-0.826,1.041v7.733
		h-1.971v-10.825h1.761l0.19,1.581c0.307-0.561,0.686-0.997,1.136-1.311s0.969-0.471,1.556-0.471c0.147,0,0.287,0.012,0.42,0.035
		c0.133,0.023,0.243,0.049,0.33,0.075L182.693,343.994z"/>
	<path fill="#808080" d="M183.933,347.565c0-1.601,0.434-2.92,1.301-3.957s2.044-1.556,3.532-1.556c1.5,0,2.686,0.518,3.557,1.551
		c0.871,1.034,1.306,2.354,1.306,3.962v0.22c0,1.614-0.434,2.936-1.301,3.962c-0.867,1.027-2.047,1.541-3.542,1.541
		s-2.676-0.515-3.547-1.546c-0.87-1.03-1.306-2.349-1.306-3.957V347.565z M185.904,347.78c0,1.146,0.242,2.092,0.725,2.838
		c0.484,0.746,1.202,1.119,2.156,1.119c0.94,0,1.654-0.373,2.141-1.119c0.487-0.746,0.73-1.691,0.73-2.838v-0.22
		c0-1.132-0.245-2.075-0.735-2.828c-0.49-0.752-1.209-1.129-2.156-1.129c-0.94,0-1.652,0.377-2.136,1.129
		c-0.483,0.753-0.725,1.696-0.725,2.828V347.78z"/>
	<path fill="#808080" d="M197.8,342.253l0.14,1.421c0.354-0.514,0.802-0.912,1.346-1.195c0.543-0.284,1.175-0.426,1.896-0.426
		c0.72,0,1.339,0.167,1.856,0.5c0.517,0.334,0.905,0.834,1.166,1.501c0.34-0.613,0.79-1.101,1.351-1.461
		c0.56-0.359,1.214-0.54,1.961-0.54c1.1,0,1.971,0.379,2.611,1.136c0.641,0.757,0.96,1.896,0.96,3.417v6.473h-1.971v-6.493
		c0-1.067-0.184-1.822-0.55-2.266s-0.914-0.666-1.641-0.666c-0.674,0-1.219,0.234-1.636,0.701c-0.417,0.467-0.662,1.057-0.735,1.771
		v0.08v6.873h-1.981v-6.493c0-1.014-0.188-1.756-0.565-2.226c-0.377-0.471-0.919-0.706-1.625-0.706c-0.601,0-1.094,0.124-1.481,0.37
		c-0.387,0.247-0.684,0.594-0.891,1.041v8.014h-1.971v-10.825H197.8z"/>
	<path fill="#808080" d="M218.439,353.288c-1.507,0-2.707-0.502-3.597-1.506c-0.891-1.004-1.336-2.306-1.336-3.906v-0.44
		c0-1.541,0.458-2.823,1.376-3.847c0.917-1.024,2.002-1.536,3.256-1.536c1.461,0,2.564,0.44,3.312,1.321
		c0.747,0.88,1.121,2.054,1.121,3.521v1.23h-7.023l-0.03,0.05c0.02,1.037,0.283,1.891,0.791,2.559
		c0.506,0.669,1.217,1.003,2.131,1.003c0.667,0,1.252-0.095,1.756-0.285c0.503-0.189,0.938-0.451,1.306-0.785l0.77,1.282
		c-0.387,0.383-0.897,0.701-1.531,0.956C220.107,353.161,219.34,353.288,218.439,353.288z M218.139,343.604
		c-0.66,0-1.224,0.277-1.691,0.833c-0.467,0.555-0.753,1.251-0.86,2.089l0.02,0.05h4.993v-0.26c0-0.771-0.207-1.415-0.621-1.934
		S218.953,343.604,218.139,343.604z"/>
</g>
<g>
</g>
<circle fill="#3090F0" cx="135.315" cy="345.908" r="7.395"/>
<g enable-background="new    ">
	<path fill="#808080" d="M161.933,382.957h-6.643v6.443h-1.971v-14.566h9.635v1.55h-7.664v5.022h6.643V382.957z"/>
	<path fill="#808080" d="M167.015,375.804h-1.971v-2.011h1.971V375.804z M167.015,389.4h-1.971v-10.825h1.971V389.4z"/>
	<path fill="#808080" d="M175.169,380.316l-1.011-0.061c-0.52,0-0.959,0.124-1.315,0.37c-0.357,0.247-0.632,0.594-0.826,1.041v7.733
		h-1.971v-10.825h1.761l0.19,1.581c0.307-0.561,0.686-0.997,1.136-1.311s0.969-0.471,1.556-0.471c0.147,0,0.287,0.012,0.42,0.035
		c0.133,0.023,0.243,0.049,0.33,0.075L175.169,380.316z"/>
	<path fill="#808080" d="M181.372,389.61c-1.507,0-2.707-0.502-3.597-1.506c-0.891-1.004-1.336-2.306-1.336-3.906v-0.44
		c0-1.541,0.458-2.823,1.376-3.847c0.917-1.024,2.002-1.536,3.256-1.536c1.461,0,2.564,0.44,3.312,1.321
		c0.747,0.88,1.121,2.054,1.121,3.521v1.23h-7.023l-0.03,0.05c0.02,1.037,0.283,1.891,0.791,2.559
		c0.506,0.669,1.217,1.003,2.131,1.003c0.667,0,1.252-0.095,1.756-0.285c0.503-0.189,0.938-0.451,1.306-0.785l0.77,1.282
		c-0.387,0.383-0.897,0.701-1.531,0.956C183.039,389.483,182.272,389.61,181.372,389.61z M181.072,379.926
		c-0.66,0-1.224,0.277-1.691,0.833c-0.467,0.555-0.753,1.251-0.86,2.089l0.02,0.05h4.993v-0.26c0-0.771-0.207-1.415-0.621-1.934
		S181.885,379.926,181.072,379.926z"/>
	<path fill="#808080" d="M188.535,389.4v-9.364h-1.691v-1.461h1.691v-1.37c0-1.154,0.302-2.046,0.905-2.677
		c0.604-0.63,1.446-0.945,2.526-0.945c0.227,0,0.455,0.019,0.686,0.055c0.23,0.037,0.485,0.089,0.765,0.155l-0.24,1.501
		c-0.12-0.026-0.265-0.05-0.435-0.07c-0.17-0.02-0.349-0.03-0.535-0.03c-0.574,0-1,0.172-1.281,0.516s-0.42,0.842-0.42,1.496v1.37
		h2.251v1.461h-2.251v9.364H188.535z"/>
	<path fill="#808080" d="M194.328,383.888c0-1.601,0.434-2.92,1.301-3.957s2.044-1.556,3.532-1.556c1.5,0,2.686,0.518,3.557,1.551
		c0.871,1.034,1.306,2.354,1.306,3.962v0.22c0,1.614-0.434,2.936-1.301,3.962c-0.867,1.027-2.047,1.541-3.542,1.541
		s-2.676-0.515-3.547-1.546c-0.87-1.03-1.306-2.349-1.306-3.957V383.888z M196.299,384.103c0,1.146,0.242,2.092,0.725,2.838
		c0.484,0.746,1.202,1.119,2.156,1.119c0.94,0,1.654-0.373,2.141-1.119c0.487-0.746,0.73-1.691,0.73-2.838v-0.22
		c0-1.132-0.245-2.075-0.735-2.828c-0.49-0.752-1.209-1.129-2.156-1.129c-0.94,0-1.652,0.377-2.136,1.129
		c-0.483,0.753-0.725,1.696-0.725,2.828V384.103z"/>
	<path fill="#808080" d="M209.895,382.567l2.301-3.992h2.301l-3.512,5.353l3.612,5.473h-2.261l-2.401-4.092l-2.401,4.092h-2.281
		l3.611-5.473l-3.512-5.353h2.271L209.895,382.567z"/>
</g>
<g>
</g>
<circle fill="#EC6464" cx="135.315" cy="382.231" r="7.395"/>
<g enable-background="new    ">
	<path fill="#808080" d="M304.672,353.078h-1.98v-14.566h1.98V353.078z"/>
	<path fill="#808080" d="M317.029,346.325h-6.674v5.202h7.694v1.551h-9.665v-14.566h9.555v1.55h-7.584v4.713h6.674V346.325z"/>
</g>
<g>
</g>
<circle fill="#98DF58" cx="284.587" cy="345.908" r="7.395"/>
<g enable-background="new    ">
	<path fill="#808080" d="M310.525,385.732c0-0.663-0.25-1.219-0.75-1.666s-1.388-0.824-2.661-1.129
		c-1.541-0.368-2.743-0.909-3.607-1.625c-0.863-0.715-1.295-1.614-1.295-2.697c0-1.137,0.465-2.086,1.396-2.849
		c0.931-0.762,2.136-1.144,3.616-1.144c1.595,0,2.863,0.438,3.808,1.311c0.943,0.874,1.398,1.888,1.365,3.042l-0.021,0.06h-1.881
		c0-0.854-0.281-1.544-0.845-2.07c-0.563-0.527-1.373-0.791-2.427-0.791c-0.98,0-1.732,0.222-2.256,0.666
		c-0.523,0.443-0.785,1.021-0.785,1.735c0,0.634,0.283,1.162,0.851,1.586c0.566,0.424,1.487,0.795,2.761,1.115
		c1.534,0.381,2.701,0.94,3.502,1.681s1.2,1.658,1.2,2.752c0,1.174-0.479,2.117-1.44,2.831c-0.96,0.714-2.214,1.07-3.762,1.07
		c-1.454,0-2.739-0.396-3.856-1.186s-1.659-1.846-1.626-3.166l0.02-0.061h1.881c0,0.934,0.344,1.645,1.031,2.131
		c0.687,0.487,1.537,0.73,2.551,0.73c0.994,0,1.781-0.209,2.361-0.626C310.235,387.016,310.525,386.448,310.525,385.732z"/>
	<path fill="#808080" d="M321.651,389.4c-0.067-0.327-0.119-0.615-0.155-0.865c-0.037-0.25-0.059-0.502-0.065-0.756
		c-0.366,0.521-0.845,0.956-1.436,1.306c-0.59,0.351-1.226,0.525-1.905,0.525c-1.128,0-1.986-0.288-2.576-0.865
		c-0.591-0.577-0.886-1.372-0.886-2.386c0-1.034,0.418-1.843,1.256-2.427c0.837-0.583,1.973-0.875,3.406-0.875h2.141v-1.07
		c0-0.634-0.193-1.136-0.58-1.506s-0.934-0.556-1.641-0.556c-0.634,0-1.148,0.162-1.546,0.485c-0.396,0.323-0.595,0.712-0.595,1.166
		h-1.881l-0.021-0.061c-0.04-0.787,0.332-1.507,1.115-2.161c0.784-0.653,1.796-0.98,3.037-0.98c1.227,0,2.214,0.313,2.961,0.936
		c0.747,0.624,1.121,1.522,1.121,2.696v5.213c0,0.387,0.02,0.76,0.06,1.12s0.113,0.714,0.221,1.061H321.651z M318.379,387.95
		c0.714,0,1.357-0.184,1.931-0.549c0.573-0.366,0.947-0.785,1.12-1.258v-1.756h-2.211c-0.794,0-1.429,0.2-1.905,0.599
		c-0.478,0.399-0.716,0.868-0.716,1.407c0,0.479,0.15,0.857,0.45,1.137C317.349,387.811,317.792,387.95,318.379,387.95z"/>
	<path fill="#808080" d="M327.082,389.4v-9.364h-1.69v-1.461h1.69v-1.37c0-1.154,0.302-2.046,0.905-2.677
		c0.604-0.63,1.446-0.945,2.526-0.945c0.227,0,0.455,0.019,0.686,0.055c0.229,0.037,0.485,0.089,0.766,0.155l-0.24,1.501
		c-0.12-0.026-0.266-0.05-0.436-0.07c-0.17-0.02-0.349-0.03-0.535-0.03c-0.574,0-1.001,0.172-1.28,0.516
		c-0.28,0.344-0.421,0.842-0.421,1.496v1.37h2.251v1.461h-2.251v9.364H327.082z"/>
	<path fill="#808080" d="M339.989,389.4c-0.067-0.327-0.119-0.615-0.155-0.865c-0.037-0.25-0.059-0.502-0.065-0.756
		c-0.366,0.521-0.845,0.956-1.436,1.306c-0.59,0.351-1.226,0.525-1.905,0.525c-1.128,0-1.986-0.288-2.576-0.865
		c-0.591-0.577-0.886-1.372-0.886-2.386c0-1.034,0.418-1.843,1.256-2.427c0.837-0.583,1.973-0.875,3.406-0.875h2.141v-1.07
		c0-0.634-0.193-1.136-0.58-1.506s-0.934-0.556-1.641-0.556c-0.634,0-1.148,0.162-1.546,0.485c-0.396,0.323-0.595,0.712-0.595,1.166
		h-1.881l-0.021-0.061c-0.04-0.787,0.332-1.507,1.115-2.161c0.784-0.653,1.796-0.98,3.037-0.98c1.227,0,2.214,0.313,2.961,0.936
		c0.747,0.624,1.121,1.522,1.121,2.696v5.213c0,0.387,0.02,0.76,0.06,1.12s0.113,0.714,0.221,1.061H339.989z M336.717,387.95
		c0.714,0,1.357-0.184,1.931-0.549c0.573-0.366,0.947-0.785,1.12-1.258v-1.756h-2.211c-0.794,0-1.429,0.2-1.905,0.599
		c-0.478,0.399-0.716,0.868-0.716,1.407c0,0.479,0.15,0.857,0.45,1.137C335.687,387.811,336.13,387.95,336.717,387.95z"/>
	<path fill="#808080" d="M349.723,380.316l-1.01-0.061c-0.521,0-0.959,0.124-1.316,0.37c-0.356,0.247-0.632,0.594-0.825,1.041v7.733
		h-1.971v-10.825h1.761l0.19,1.581c0.307-0.561,0.686-0.997,1.136-1.311s0.969-0.471,1.556-0.471c0.146,0,0.286,0.012,0.42,0.035
		c0.133,0.023,0.243,0.049,0.33,0.075L349.723,380.316z"/>
	<path fill="#808080" d="M353.755,375.804h-1.971v-2.011h1.971V375.804z M353.755,389.4h-1.971v-10.825h1.971V389.4z"/>
</g>
<g>
</g>
<circle fill="#F9DD51" cx="284.587" cy="382.231" r="7.395"/>
<g enable-background="new    ">
	<path fill="#808080" d="M455.181,347.096c0,1.78-0.552,3.258-1.656,4.432c-1.104,1.174-2.536,1.761-4.297,1.761
		c-1.7,0-3.083-0.587-4.146-1.761c-1.064-1.174-1.596-2.651-1.596-4.432v-2.592c0-1.774,0.531-3.251,1.596-4.432
		c1.063-1.181,2.446-1.771,4.146-1.771c1.761,0,3.193,0.589,4.297,1.767c1.104,1.177,1.656,2.656,1.656,4.437V347.096z
		 M453.21,344.484c0-1.334-0.36-2.428-1.081-3.282c-0.72-0.854-1.688-1.28-2.901-1.28c-1.147,0-2.063,0.427-2.746,1.28
		c-0.684,0.854-1.025,1.948-1.025,3.282v2.611c0,1.347,0.342,2.447,1.025,3.301c0.684,0.854,1.599,1.281,2.746,1.281
		c1.221,0,2.189-0.426,2.906-1.275c0.717-0.851,1.076-1.953,1.076-3.307V344.484z"/>
	<path fill="#808080" d="M466.977,348.076c0,1.561-0.374,2.819-1.121,3.776s-1.777,1.436-3.091,1.436
		c-0.667,0-1.253-0.111-1.756-0.335c-0.504-0.224-0.933-0.559-1.286-1.006v5.293h-1.971v-14.987h1.511l0.311,1.4
		c0.353-0.52,0.793-0.917,1.32-1.19c0.526-0.273,1.141-0.41,1.841-0.41c1.341,0,2.383,0.532,3.126,1.596
		c0.744,1.064,1.116,2.47,1.116,4.217V348.076z M465.006,347.86c0-1.226-0.242-2.233-0.726-3.022
		c-0.484-0.789-1.196-1.185-2.137-1.185c-0.566,0-1.05,0.129-1.45,0.385c-0.4,0.257-0.724,0.608-0.971,1.055v5.226
		c0.247,0.446,0.57,0.795,0.971,1.044c0.4,0.25,0.891,0.375,1.471,0.375c0.934,0,1.641-0.341,2.121-1.024
		c0.48-0.683,0.721-1.563,0.721-2.643V347.86z"/>
	<path fill="#808080" d="M473.89,353.288c-1.508,0-2.706-0.502-3.597-1.506s-1.336-2.306-1.336-3.906v-0.44
		c0-1.541,0.459-2.823,1.376-3.847c0.917-1.024,2.002-1.536,3.257-1.536c1.46,0,2.564,0.44,3.312,1.321
		c0.746,0.88,1.12,2.054,1.12,3.521v1.23h-7.023l-0.03,0.05c0.021,1.037,0.284,1.891,0.791,2.559
		c0.507,0.669,1.217,1.003,2.131,1.003c0.667,0,1.252-0.095,1.756-0.285c0.503-0.189,0.938-0.451,1.306-0.785l0.771,1.282
		c-0.387,0.383-0.897,0.701-1.531,0.956C475.557,353.161,474.79,353.288,473.89,353.288z M473.59,343.604
		c-0.661,0-1.225,0.277-1.691,0.833c-0.467,0.555-0.754,1.251-0.86,2.089l0.021,0.05h4.992v-0.26c0-0.771-0.207-1.415-0.62-1.934
		C475.017,343.863,474.404,343.604,473.59,343.604z"/>
	<path fill="#808080" d="M485.355,343.994l-1.01-0.061c-0.521,0-0.959,0.124-1.316,0.37c-0.356,0.247-0.632,0.594-0.825,1.041v7.733
		h-1.971v-10.825h1.761l0.19,1.581c0.307-0.561,0.686-0.997,1.136-1.311s0.969-0.471,1.556-0.471c0.146,0,0.286,0.012,0.42,0.035
		c0.133,0.023,0.243,0.049,0.33,0.075L485.355,343.994z"/>
	<path fill="#808080" d="M493.909,353.078c-0.067-0.327-0.119-0.615-0.155-0.865c-0.037-0.25-0.059-0.502-0.065-0.756
		c-0.366,0.521-0.845,0.956-1.436,1.306c-0.59,0.351-1.226,0.525-1.905,0.525c-1.128,0-1.986-0.288-2.576-0.865
		c-0.591-0.577-0.886-1.372-0.886-2.386c0-1.034,0.418-1.843,1.256-2.427c0.837-0.583,1.973-0.875,3.406-0.875h2.141v-1.07
		c0-0.634-0.193-1.136-0.58-1.506s-0.934-0.556-1.641-0.556c-0.634,0-1.148,0.162-1.546,0.485c-0.396,0.323-0.595,0.712-0.595,1.166
		h-1.881l-0.021-0.061c-0.04-0.787,0.332-1.507,1.115-2.161c0.784-0.653,1.796-0.98,3.037-0.98c1.227,0,2.214,0.313,2.961,0.936
		c0.747,0.624,1.121,1.522,1.121,2.696v5.213c0,0.387,0.02,0.76,0.06,1.12s0.113,0.714,0.221,1.061H493.909z M490.638,351.628
		c0.714,0,1.357-0.184,1.931-0.549c0.573-0.366,0.947-0.785,1.12-1.258v-1.756h-2.211c-0.794,0-1.429,0.2-1.905,0.599
		c-0.478,0.399-0.716,0.868-0.716,1.407c0,0.479,0.15,0.857,0.45,1.137C489.608,351.488,490.051,351.628,490.638,351.628z"/>
</g>
<g>
</g>
<circle fill="#24DCD4" cx="426.152" cy="345.908" r="7.396"/>
<g enable-background="new    ">
	<path fill="#808080" d="M455.181,383.418c0,1.78-0.552,3.258-1.656,4.432c-1.104,1.174-2.536,1.761-4.297,1.761
		c-1.7,0-3.083-0.587-4.146-1.761c-1.064-1.174-1.596-2.651-1.596-4.432v-2.592c0-1.774,0.531-3.251,1.596-4.432
		c1.063-1.181,2.446-1.771,4.146-1.771c1.761,0,3.193,0.589,4.297,1.767c1.104,1.177,1.656,2.656,1.656,4.437V383.418z
		 M453.21,380.807c0-1.334-0.36-2.428-1.081-3.282c-0.72-0.854-1.688-1.28-2.901-1.28c-1.147,0-2.063,0.427-2.746,1.28
		c-0.684,0.854-1.025,1.948-1.025,3.282v2.611c0,1.347,0.342,2.447,1.025,3.301c0.684,0.854,1.599,1.281,2.746,1.281
		c1.221,0,2.189-0.426,2.906-1.275c0.717-0.851,1.076-1.953,1.076-3.307V380.807z"/>
	<path fill="#808080" d="M460.354,375.964v2.611h2.051v1.461h-2.051v6.573c0,0.507,0.104,0.863,0.314,1.07
		c0.211,0.207,0.489,0.31,0.836,0.31c0.113,0,0.238-0.013,0.375-0.039c0.137-0.027,0.259-0.061,0.365-0.101l0.26,1.351
		c-0.146,0.12-0.361,0.219-0.645,0.295c-0.284,0.077-0.569,0.115-0.855,0.115c-0.801,0-1.438-0.241-1.911-0.726
		c-0.474-0.483-0.711-1.242-0.711-2.275v-6.573h-1.721v-1.461h1.721v-2.611H460.354z"/>
	<path fill="#808080" d="M466.806,380.026c0.374-0.521,0.832-0.926,1.376-1.216c0.543-0.29,1.146-0.436,1.806-0.436
		c1.154,0,2.053,0.347,2.696,1.041c0.644,0.693,0.966,1.761,0.966,3.201v6.783h-1.972v-6.803c0-0.895-0.191-1.555-0.575-1.981
		c-0.383-0.427-0.955-0.641-1.716-0.641c-0.547,0-1.042,0.129-1.485,0.386s-0.809,0.605-1.096,1.045v7.994h-1.971v-15.607h1.971
		V380.026z"/>
	<path fill="#808080" d="M480.973,389.61c-1.508,0-2.706-0.502-3.597-1.506s-1.336-2.306-1.336-3.906v-0.44
		c0-1.541,0.459-2.823,1.376-3.847c0.917-1.024,2.002-1.536,3.257-1.536c1.46,0,2.564,0.44,3.312,1.321
		c0.746,0.88,1.12,2.054,1.12,3.521v1.23h-7.023l-0.03,0.05c0.021,1.037,0.284,1.891,0.791,2.559
		c0.507,0.669,1.217,1.003,2.131,1.003c0.667,0,1.252-0.095,1.756-0.285c0.503-0.189,0.938-0.451,1.306-0.785l0.771,1.282
		c-0.387,0.383-0.897,0.701-1.531,0.956C482.64,389.483,481.873,389.61,480.973,389.61z M480.673,379.926
		c-0.661,0-1.225,0.277-1.691,0.833c-0.467,0.555-0.754,1.251-0.86,2.089l0.021,0.05h4.992v-0.26c0-0.771-0.207-1.415-0.62-1.934
		C482.1,380.186,481.487,379.926,480.673,379.926z"/>
	<path fill="#808080" d="M492.438,380.316l-1.01-0.061c-0.521,0-0.959,0.124-1.316,0.37c-0.356,0.247-0.632,0.594-0.825,1.041v7.733
		h-1.971v-10.825h1.761l0.19,1.581c0.307-0.561,0.686-0.997,1.136-1.311s0.969-0.471,1.556-0.471c0.146,0,0.286,0.012,0.42,0.035
		c0.133,0.023,0.243,0.049,0.33,0.075L492.438,380.316z"/>
	<path fill="#808080" d="M500.632,386.519c0-0.433-0.165-0.79-0.495-1.07s-0.955-0.523-1.876-0.73
		c-1.314-0.286-2.303-0.674-2.967-1.163c-0.663-0.489-0.995-1.157-0.995-2.003c0-0.879,0.373-1.628,1.12-2.247
		c0.747-0.62,1.722-0.93,2.922-0.93c1.261,0,2.263,0.324,3.007,0.971c0.743,0.647,1.099,1.434,1.065,2.361l-0.021,0.06h-1.881
		c0-0.474-0.198-0.898-0.596-1.275c-0.396-0.377-0.922-0.565-1.575-0.565c-0.7,0-1.221,0.153-1.561,0.46
		c-0.341,0.308-0.511,0.678-0.511,1.111c0,0.427,0.15,0.764,0.45,1.01c0.301,0.247,0.911,0.467,1.831,0.66
		c1.367,0.294,2.385,0.692,3.052,1.196c0.667,0.503,1,1.179,1,2.025c0,0.961-0.389,1.738-1.165,2.331
		c-0.777,0.594-1.793,0.891-3.047,0.891c-1.381,0-2.468-0.35-3.262-1.051c-0.794-0.7-1.17-1.517-1.13-2.451l0.02-0.06h1.881
		c0.033,0.697,0.294,1.206,0.78,1.528c0.487,0.321,1.058,0.482,1.711,0.482c0.7,0,1.249-0.142,1.646-0.425
		C500.434,387.352,500.632,386.979,500.632,386.519z"/>
</g>
<g>
</g>
<circle fill="#EC64A5" cx="426.152" cy="382.231" r="7.396"/>
</svg>
